<svg version="1.1" xmlns="http://www.w3.org/2000/svg" xmlns:xlink="http://www.w3.org/1999/xlink" width="46.27479" height="21.68392" viewBox="0,0,46.27479,21.68392"><g transform="translate(-224.15815,-173.54488)"><g data-paper-data="{&quot;isPaintingLayer&quot;:true}" fill="#212121" fill-rule="nonzero" stroke="none" stroke-width="1" stroke-linecap="butt" stroke-linejoin="miter" stroke-miterlimit="10" stroke-dasharray="" stroke-dashoffset="0" style="mix-blend-mode: normal"><path d="M268.38711,188.22965c-0.52244,1.57235 -2.22059,2.42345 -3.79293,1.90097l-18.42273,-6.0338l6.89878,-4.84111l1.52822,1.27044l-0.91279,0.78622l-1.45159,0.92563l-1.73504,1.10161l6.80909,2.26252l2.52266,-7.59184l-5.03289,-1.67232l-0.0122,1.62125l-0.00886,1.17733l-0.19504,1.40894l-1.63347,-1.09795l-0.34553,-5.90267l15.77528,5.19792c1.57234,0.52247 2.42343,2.22063 1.901,3.79298zM260.70495,178.02754l-2.52267,7.59184l2.81847,0.93651l2.52258,-7.59191z"/><path d="M234.17184,193.7003c-0.15157,0.1516 -0.34789,0.2505 -0.55995,0.282l-8.3066,1.2356c-0.31334,0.0466 -0.63023,-0.058 -0.85423,-0.282c-0.224,-0.224 -0.32862,-0.5409 -0.28201,-0.8543l1.23553,-8.3066c0.03154,-0.2121 0.13041,-0.4084 0.28201,-0.56l8.18964,-8.18966l6.10976,2.32097l-0.5241,1.82942l-5.57283,-2.15826l-6.1041,6.92763l5.65685,5.6568l7.05366,-7.10967l-1.37815,-3.42297l0.84689,-1.69563l2.69299,5.60602zM227.17261,186.8422l-0.64819,4.3578l1.56721,1.5673l4.35782,-0.6483z"/></g></g></svg>
