<svg version="1.1" xmlns="http://www.w3.org/2000/svg" xmlns:xlink="http://www.w3.org/1999/xlink" width="37.2368" height="16.53083" viewBox="0,0,37.2368,16.53083"><defs><radialGradient cx="238.28197" cy="181.55501" r="10.08762" gradientUnits="userSpaceOnUse" id="color-1"><stop offset="0" stop-color="#ff9130"/><stop offset="1" stop-color="#f3633d"/></radialGradient><radialGradient cx="244.98644" cy="181.0245" r="11.81345" gradientUnits="userSpaceOnUse" id="color-2"><stop offset="0" stop-color="#ff9130"/><stop offset="1" stop-color="#f3633d"/></radialGradient><linearGradient x1="227.88654" y1="190.0937" x2="230.51154" y2="194.2187" gradientUnits="userSpaceOnUse" id="color-3"><stop offset="0" stop-color="#d8a587"/><stop offset="1" stop-color="#ce7a98"/></linearGradient><linearGradient x1="230.98029" y1="190.2822" x2="230.45685" y2="190.8124" gradientUnits="userSpaceOnUse" id="color-4"><stop offset="0.20741" stop-color="#ffc09f"/><stop offset="1" stop-color="#fcb196" stop-opacity="0"/></linearGradient><linearGradient x1="225.51154" y1="189.9374" x2="227.63654" y2="190.1249" gradientUnits="userSpaceOnUse" id="color-5"><stop offset="0" stop-color="#debca3"/><stop offset="1" stop-color="#debca3" stop-opacity="0"/></linearGradient><linearGradient x1="261.83967" y1="189.56369" x2="256.61256" y2="187.07435" gradientUnits="userSpaceOnUse" id="color-6"><stop offset="0" stop-color="#ff6153"/><stop offset="1" stop-color="#ff6154"/></linearGradient><linearGradient x1="259.69448" y1="182.56288" x2="257.98496" y2="186.6421" gradientUnits="userSpaceOnUse" id="color-7"><stop offset="0" stop-color="#f1553e"/><stop offset="1" stop-color="#f1553e" stop-opacity="0"/></linearGradient><radialGradient cx="260.67038" cy="189.09094" r="1.37002" gradientUnits="userSpaceOnUse" id="color-8"><stop offset="0.17742" stop-color="#ff786d"/><stop offset="1" stop-color="#ff786d" stop-opacity="0"/></radialGradient><linearGradient x1="256.2186" y1="181.23259" x2="254.10304" y2="186.39036" gradientUnits="userSpaceOnUse" id="color-9"><stop offset="0" stop-color="#c5c4cb"/><stop offset="1" stop-color="#e8defa"/></linearGradient><linearGradient x1="251.8597" y1="189.73259" x2="253.18454" y2="186.79065" gradientUnits="userSpaceOnUse" id="color-10"><stop offset="0" stop-color="#c9b9e0"/><stop offset="1" stop-color="#c9b9e0" stop-opacity="0"/></linearGradient><linearGradient x1="226.23029" y1="192.5312" x2="227.29095" y2="194.0011" gradientUnits="userSpaceOnUse" id="color-11"><stop offset="0" stop-color="#461e49"/><stop offset="1" stop-color="#450f51"/></linearGradient><linearGradient x1="230.92255" y1="182.09963" x2="232.47114" y2="183.61355" gradientUnits="userSpaceOnUse" id="color-12"><stop offset="0" stop-color="#ee9b6a"/><stop offset="1" stop-color="#ee9b6a" stop-opacity="0"/></linearGradient></defs><g transform="translate(-226.03344,-177.4703)"><g data-paper-data="{&quot;isPaintingLayer&quot;:true}" fill-rule="nonzero" stroke="none" stroke-width="1" stroke-linecap="butt" stroke-linejoin="miter" stroke-miterlimit="10" stroke-dasharray="" stroke-dashoffset="0" style="mix-blend-mode: normal"><path d="M233.41073,193.08251c-0.23819,0.23817 -0.90611,-0.04361 -1.4919,-0.6294l-4.36309,-4.36307c-0.58579,-0.58578 -0.86758,-1.25375 -0.6294,-1.49192l7.72001,-7.72003l4.89084,1.70637l1.31715,4.84013z" fill="url(#color-1)"/><path d="M262.49745,184.00605c0.45082,0.21051 0.53217,0.98962 0.18169,1.74026l-2.61043,5.59094c-0.35047,0.75064 -1.00006,1.18852 -1.45088,0.97802l-14.61247,-6.82264l4.41189,-2.64697l-0.276,-5.37536z" fill="url(#color-2)"/><path d="M226.6545,187.2275c0.01885,-0.1992 0.09703,-0.3882 0.22445,-0.5425l0.10056,-0.1218l6.48438,6.4844l-0.15325,0.1188c-0.14945,0.1158 -0.32868,0.1869 -0.5169,0.205l-6.54113,0.6288c-0.12505,0.012 -0.23008,-0.0929 -0.21825,-0.2179z" fill="url(#color-3)"/><path d="M226.6545,187.2275c0.01885,-0.1992 0.09703,-0.3882 0.22445,-0.5425l0.10056,-0.1218l6.48438,6.4844l-0.15325,0.1188c-0.14945,0.1158 -0.32868,0.1869 -0.5169,0.205l-6.54113,0.6288c-0.12505,0.012 -0.23008,-0.0929 -0.21825,-0.2179z" fill="url(#color-4)"/><path d="M226.6545,187.2275c0.01885,-0.1992 0.09703,-0.3882 0.22445,-0.5425l0.10056,-0.1218l6.48438,6.4844l-0.15325,0.1188c-0.14945,0.1158 -0.32868,0.1869 -0.5169,0.205l-6.54113,0.6288c-0.12505,0.012 -0.23008,-0.0929 -0.21825,-0.2179z" fill="url(#color-5)"/><path d="M258.32762,182.09543l4.07686,1.90349c0.75065,0.35049 1.07503,1.24308 0.72455,1.99373l-2.61042,5.59094c-0.35047,0.75065 -1.24311,1.07505 -1.99375,0.72456l-4.07686,-1.90349z" fill="url(#color-6)"/><path d="M258.32762,182.09543l4.07686,1.90349c0.75065,0.35049 1.07503,1.24308 0.72455,1.99373l-2.61042,5.59094c-0.35047,0.75065 -1.24311,1.07505 -1.99375,0.72456l-4.07686,-1.90349z" fill="url(#color-7)"/><path d="M258.32762,182.09543l4.07686,1.90349c0.75065,0.35049 1.07503,1.24308 0.72455,1.99373l-2.61042,5.59094c-0.35047,0.75065 -1.24311,1.07505 -1.99375,0.72456l-4.07686,-1.90349z" fill="url(#color-8)"/><path d="M254.24031,180.18701l4.08733,1.90841l-3.87964,8.30923l-4.08724,-1.90844z" fill="url(#color-9)"/><path d="M254.24031,180.18701l4.08733,1.90841l-3.87964,8.30923l-4.08724,-1.90844z" fill="url(#color-10)"/><path d="M226.25262,194.0002c-0.12506,0.012 -0.2301,-0.0929 -0.21826,-0.2179l0.21753,-2.2994l2.29657,2.2966z" fill="url(#color-11)"/><path d="M234.61334,178.94011c0.16999,-0.16998 4.90342,1.6389 4.90342,1.6389c0,0 1.43645,4.69591 1.28151,4.85084l-7.2428,7.53694l-6.48437,-6.4844z" fill="url(#color-12)"/></g></g></svg>
