<svg version="1.1" xmlns="http://www.w3.org/2000/svg" xmlns:xlink="http://www.w3.org/1999/xlink" width="33.59519" height="26.33281" viewBox="0,0,33.59519,26.33281"><g transform="translate(-225.06291,-167.89609)"><g data-paper-data="{&quot;isPaintingLayer&quot;:true}" fill-rule="nonzero" stroke="none" stroke-width="1" stroke-linecap="butt" stroke-linejoin="miter" stroke-miterlimit="10" stroke-dasharray="" stroke-dashoffset="0" style="mix-blend-mode: normal"><path d="M234.99995,177.26987l4.12293,2.92132l2.94816,4.14974l-8.72021,8.72024l-4.41302,-3.01933l-2.65805,-4.05177z" fill="#ff822d"/><path d="M226.31475,185.9348l7.04229,7.0423l-6.13041,0.9253l-1.25498,-0.5254l-0.58215,-1.3118z" fill="#ffce7c"/><path d="M246.22336,171.47714l2.64984,4.25339l1.67481,4.76313l-6.89684,3.06668l-0.98811,-5.11347l-3.24243,-3.7069z" fill="#ff822d"/><path d="M225.06291,194.2289l0.32657,-2.1637l1.83711,1.8371z" fill="#402a32"/><path d="M253.19793,168.09324c0.99599,-0.47767 2.19056,-0.05755 2.6682,0.93837l2.59484,5.40993c0.47764,0.99592 0.05751,2.19053 -0.93838,2.66823l-4.50821,2.16229l-3.51963,-3.63784l-0.80504,-5.37866z" fill="#f92f60"/><path d="M248.6897,170.25558l4.32468,9.01648l-2.70506,1.29744l-4.32456,-9.01652z" fill="#d3d3d3"/></g></g></svg>
